HIERARCHY
ROOT Hips
{
  OFFSET 0 0 0
  CHANNELS 6 Xposition Yposition Zposition Zrotation Yrotation Xrotation
  JOINT LeftThigh
  {
    OFFSET 8.409438 0 -5.917753
    CHANNELS 3 Zrotation Yrotation Xrotation
    JOINT LeftLeg
    {
      OFFSET 0 0 -42.358652
      CHANNELS 3 Zrotation Yrotation Xrotation
      JOINT LeftFoot
      {
        OFFSET 0 0 -39.357303
        CHANNELS 3 Zrotation Yrotation Xrotation
      }
    }
  }
  JOINT RightThigh
  {
    OFFSET -8.409438 0 -5.917753
    CHANNELS 3 Zrotation Yrotation Xrotation
    JOINT RightLeg
    {
      OFFSET 0 0 -42.358652
      CHANNELS 3 Zrotation Yrotation Xrotation
      JOINT RightFoot
      {
        OFFSET 0 0 -39.357303
        CHANNELS 3 Zrotation Yrotation Xrotation
      }
    }
  }
  JOINT SpineLow
  {
    OFFSET 0 0 4.719101
    CHANNELS 3 Zrotation Yrotation Xrotation
    JOINT SpineMid
    {
      OFFSET 0 0 12.899191
      CHANNELS 3 Zrotation Yrotation Xrotation
      JOINT Chest
      {
        OFFSET 0 0 12.899191
        CHANNELS 3 Zrotation Yrotation Xrotation
        JOINT LeftShoulder
        {
          OFFSET 7.550562 1.41573 9.438202
          CHANNELS 3 Zrotation Yrotation Xrotation
          JOINT LeftArm
          {
            OFFSET 9.155056 0 4.247191
            CHANNELS 3 Zrotation Yrotation Xrotation
            JOINT LeftForearm
            {
              OFFSET 0 0 25.771955
              CHANNELS 3 Zrotation Yrotation Xrotation
              JOINT LeftHand
              {
                OFFSET 0 0 25.197169
                CHANNELS 3 Zrotation Yrotation Xrotation
              }
            }
          }
        }
        JOINT RightShoulder
        {
          OFFSET -7.550562 1.41573 9.438202
          CHANNELS 3 Zrotation Yrotation Xrotation
          JOINT RightArm
          {
            OFFSET -9.155056 0 4.247191
            CHANNELS 3 Zrotation Yrotation Xrotation
            JOINT RightForearm
            {
              OFFSET 0 0 -25.771955
              CHANNELS 3 Zrotation Yrotation Xrotation
              JOINT RightHand
              {
                OFFSET 0 0 -25.197169
                CHANNELS 3 Zrotation Yrotation Xrotation
              }
            }
          }
        }
        JOINT Neck
        {
          OFFSET 0 0 15.101124
          CHANNELS 3 Zrotation Yrotation Xrotation
          JOINT Head
          {
            OFFSET 0 0 11.325843
            CHANNELS 3 Zrotation Yrotation Xrotation
            End Site
            {
              OFFSET 0 0 14.157303
            }
          }
        }
      }
    }
  }
}
MOTION
Frames: 14
Frame Time: 0.0
0.0  89.887642  0.0  -6.663051  -43.671502  -92.651271  27.52711  -20.085307  7.268953  14.163482  -1.777933  14.254588  1.381494  -0.156183  0.170893  7.037086  -0.81552  -1.319726  -10.656246  4.444413  3.843611  8.489903  2.120959  -0.062432  -0.718287  -0.521076  -0.167179  -1.960033  -1.429122  -0.441507  -1.960033  -1.429122  -0.441507  -30.135001  4.796787  -8.659933  -147.829036  76.58767  -91.392111  -33.798298  6.791754  93.49778  105.937944  13.973488  8.343947  -8.18235  -14.368015  9.418469  64.842061  26.149684  20.5088  9.116476  -4.100629  -107.553121  76.480765  -0.202717  -22.644307  -2.335337  -10.045683  -16.607022  -2.02435  -7.477622  -12.461998  
0.0  89.887642  0.0  -6.227314  -39.788887  -92.009754  26.227854  -19.696974  5.346873  12.964248  -1.238132  15.148073  1.036974  -0.181149  0.063965  5.326086  -0.02745  -1.391855  -12.070625  4.264111  3.104128  8.306443  2.033064  -0.150387  -1.100313  -0.656645  0.053159  -3.009716  -1.792027  0.175185  -3.009716  -1.792027  0.175185  -29.890388  2.375957  -12.065017  -134.388135  83.41521  -75.443065  -32.817996  -8.483954  93.544586  105.583582  14.056739  8.539736  -8.540167  -11.848001  10.074264  59.931922  28.205594  22.918723  11.763658  -4.859419  -112.488538  78.482143  1.437308  -27.924313  -2.422002  -9.455857  -19.060803  -2.112262  -7.024723  -14.300877  
0.0  89.887642  0.0  -5.451069  -35.43304  -91.551999  23.893863  -19.004855  3.587923  11.819014  -0.495765  16.185875  0.948491  -0.242015  -0.026934  2.75067  1.020636  -1.592755  -12.775385  4.094635  2.626482  8.051222  1.944536  -0.256515  -1.448176  -0.747795  0.100994  -3.962717  -2.037128  0.320815  -3.962716  -2.037128  0.320814  -29.57133  -0.186976  -13.61731  -24.354232  86.756805  36.765064  -32.646826  -24.024526  92.40078  105.457038  14.604618  7.242346  -8.877395  -9.083098  11.490765  54.8092  29.558493  26.90191  14.913043  -5.366947  -116.0313  81.152569  2.010741  -31.682966  -2.835386  -8.765286  -20.985435  -2.429045  -6.48598  -15.74942  
0.0  89.887642  0.0  -4.614757  -30.909367  -91.356903  20.769529  -18.307559  1.952911  10.849045  0.223948  17.339462  1.096505  -0.190072  -0.034507  -0.166475  2.200611  -1.59372  -13.065723  3.86054  2.285385  7.715243  1.807911  -0.313519  -1.783951  -0.852232  0.133908  -4.8828  -2.318146  0.428819  -4.8828  -2.318146  0.428819  -28.294718  -2.593435  -14.446065  9.545345  79.328467  72.079627  -31.213707  -36.353508  88.460727  106.783102  15.279354  4.293675  -9.31254  -6.490606  11.431635  52.629337  27.881617  33.485719  15.627335  -5.875546  -116.645636  84.85469  1.609159  -31.74166  -3.166364  -7.882956  -22.746187  -2.670675  -5.804207  -17.074065  
0.0  89.887642  0.0  -3.705072  -28.273945  -91.266819  19.370634  -17.667368  0.472841  10.162451  1.051832  18.216278  1.392054  -0.057774  -0.036295  -1.031179  3.635218  -1.529977  -13.522601  3.453527  2.047283  7.437248  1.642595  -0.308308  -1.697379  -0.938836  0.10502  -4.645822  -2.557381  0.352958  -4.645822  -2.557381  0.352958  -26.969167  -5.408921  -14.412966  11.435815  74.254129  73.678933  -27.342815  -43.990623  83.839494  108.257163  16.57394  1.159507  -11.993007  -4.086936  12.279689  53.48756  25.494024  40.99581  12.891062  -5.977488  -115.056732  86.48663  0.490727  -29.65525  -3.873013  -6.868351  -24.134287  -3.179778  -5.007899  -18.123373  
0.0  89.887642  0.0  -3.772386  -24.929076  -90.163649  18.216106  -17.936227  -1.813113  9.539548  1.934402  18.793779  1.614076  0.144499  -0.152689  -2.023635  4.260261  -2.0142  -14.34683  3.103359  2.008208  7.072956  1.444912  -0.36173  -1.710955  -1.156269  0.081735  -4.683906  -3.152935  0.305325  -4.683906  -3.152935  0.305324  -25.044271  -9.755921  -14.474399  3.837864  73.094274  64.006773  -20.986256  -46.101455  79.785779  108.970338  17.105314  -1.363799  -14.413011  -2.056357  11.543906  55.208554  21.286829  48.861973  8.99221  -6.371968  -111.893797  85.286578  -2.323979  -26.800815  -4.565962  -5.976625  -25.588558  -3.680306  -4.300537  -19.219869  
0.0  89.887642  0.0  -3.621503  -21.886584  -89.358676  18.676403  -17.937945  -3.611501  8.715424  2.246668  18.830146  1.214801  0.189493  -0.398585  -2.025421  4.771921  -2.235726  -15.545263  3.113066  1.960129  6.633601  1.275568  -0.49497  -2.132299  -1.504746  0.328505  -5.855631  -4.080312  1.031081  -5.855631  -4.080312  1.031081  -19.096326  -12.625949  -14.752024  -9.387551  71.753231  48.817815  -14.283337  -45.56596  75.940393  110.112319  17.135208  -2.553422  -13.712196  0.691305  10.664086  55.640632  17.595819  53.779827  7.788777  -8.505502  -108.326241  83.531058  -7.316204  -22.547845  -3.48639  -5.117923  -27.494006  -2.85096  -3.690551  -20.636691  
0.0  89.887642  0.0  -3.523355  -19.361405  -88.689731  20.608901  -17.61059  -4.504665  7.565891  1.962972  17.771769  0.226609  0.196134  -0.708945  -1.222795  4.855363  -2.28834  -16.91278  3.52352  1.82246  6.084051  1.175106  -0.606585  -2.109116  -1.755797  0.383674  -5.802057  -4.76144  1.203004  -5.802057  -4.76144  1.203004  -16.736336  -14.894857  -14.615659  -11.870967  70.313593  45.248182  -6.672917  -45.449572  69.778709  110.824757  16.987655  -1.989805  -14.068868  2.97436  12.245129  53.592554  14.103018  54.863461  8.675627  -13.427553  -104.926658  81.306549  -13.101478  -18.107742  -4.273378  -4.52045  -28.292834  -3.421997  -3.20071  -21.241364  
0.0  89.887642  0.0  -3.402419  -17.537847  -88.471983  23.080654  -17.269345  -4.516637  6.073569  1.694884  16.150353  -0.392933  0.210364  -0.95716  -0.152154  4.667413  -1.879618  -18.15416  4.147245  1.561853  5.626038  1.205926  -0.693157  -1.691348  -1.768823  0.345655  -4.655921  -4.807845  1.069869  -4.655921  -4.807845  1.069869  -17.345952  -17.920517  -14.38203  -5.914153  68.399513  50.22026  -0.032261  -45.69147  62.640187  110.750639  16.474528  -0.377469  -16.798262  2.67602  13.585735  52.556783  10.445668  55.905227  14.770194  -23.325609  -106.777773  80.195637  -15.481634  -15.244534  -6.720927  -4.610568  -28.180143  -5.264515  -3.156235  -21.177355  
0.0  89.887642  0.0  -2.757735  -16.101725  -88.635459  25.284293  -16.567428  -3.892852  4.447441  1.623672  14.419297  -0.646525  0.168163  -1.156294  0.218619  5.04911  -1.217521  -19.060102  4.577955  1.256158  5.391605  1.316171  -0.778856  -1.532299  -1.630245  0.375668  -4.219457  -4.430091  1.131331  -4.219457  -4.43009  1.131331  -15.630606  -20.044695  -13.654772  -1.342534  64.950336  54.805777  5.891117  -45.855526  55.579761  110.523611  16.183765  0.055169  -19.405525  1.815696  13.672437  52.954961  9.144697  56.379405  29.301666  -34.199733  -116.311198  79.259776  -9.582534  -20.398055  -8.210612  -5.150724  -27.945895  -6.406057  -3.496821  -21.018938  
0.0  89.887642  0.0  -1.98594  -13.981088  -91.095318  24.872026  -16.729233  -0.873941  3.554598  1.520773  12.766351  -0.561237  0.125842  -1.08708  -0.998668  5.944284  1.453215  -19.995968  4.395912  1.32143  5.786415  1.698969  -0.879861  -1.811145  -1.606877  0.582484  -4.99565  -4.34543  1.713851  -4.99565  -4.34543  1.713851  -12.698629  -20.582128  -12.434375  4.185559  61.759679  60.575096  9.300829  -46.835411  50.202137  110.278215  16.046817  -1.449858  -19.306506  1.732669  13.566753  51.866827  10.132873  56.788607  38.386917  -37.680115  -122.314036  77.343267  -5.390702  -18.169348  -8.54758  -4.850961  -27.365843  -6.64056  -3.263776  -20.584688  
0.0  89.887642  0.0  -0.5613  -10.489648  -93.941487  21.415676  -16.140442  2.694382  4.271407  1.283709  11.725175  -0.71318  -0.064177  -1.021752  -4.224356  7.869827  3.986805  -19.982194  4.52186  1.729379  5.843919  1.866619  -0.972381  -2.463636  -1.447798  0.724655  -6.784029  -3.878414  2.128184  -6.784029  -3.878414  2.128184  -10.654942  -21.030522  -10.199628  8.756994  59.359616  64.268372  9.634985  -48.618892  47.956203  109.654177  16.0116  -3.22065  -17.469171  2.026053  13.865188  50.480478  10.767025  56.654159  32.500991  -34.900205  -117.776167  80.794164  -8.41915  -14.926049  -8.086117  -4.249174  -26.666399  -6.261854  -2.840824  -20.050962  
0.0  89.887642  0.0  -1.037206  -8.542581  -93.216497  19.576392  -15.728232  2.215714  5.751652  0.607958  11.154684  -1.238088  -0.230944  -0.876428  -6.362592  7.85411  3.315945  -19.991783  4.575821  2.265206  5.776106  1.967552  -1.047843  -2.891445  -1.641607  0.555142  -7.951655  -4.41309  1.7136  -7.951655  -4.41309  1.7136  -8.71751  -20.817195  -9.006249  10.587973  57.866458  65.064038  8.459248  -49.870882  48.42491  108.873535  16.065623  -5.035318  -15.452054  2.021813  13.299326  49.852757  11.88461  56.990015  21.361576  -28.077156  -109.841361  86.379952  -10.019567  -15.427966  -7.261523  -3.61149  -26.384299  -5.613018  -2.400591  -19.82785  
0.0  89.887642  0.0  -1.135815  -7.86071  -92.337886  18.595478  -14.711762  1.539866  6.851986  -0.317389  10.818008  -1.600102  -0.289304  -0.795841  -7.659756  7.896044  2.213143  -19.422294  4.814353  2.89839  5.849442  2.132679  -1.080043  -2.902441  -1.805309  0.190099  -7.961182  -4.903569  0.736779  -7.961182  -4.903569  0.736779  -9.12742  -19.463763  -7.246096  10.777454  57.744865  64.835769  7.305388  -51.317459  49.807688  108.649482  16.04319  -5.767115  -14.755506  2.3158  13.528702  50.270686  12.41015  57.269862  11.911809  -20.486033  -104.805583  89.185043  -9.439785  -16.709632  -7.407589  -2.690222  -25.658116  -5.679693  -1.710262  -19.27599  
